# xmcd
#
# Track frame offsets:
#	150
#	15925
#	29917
#	45199
#	60408
#	72877
#	87688
#	104119
#	120704
#	138225
#	153621
#
# Disc length: 2327 seconds
#
# Revision: 1
# Processed by: cddbd v1.5.2PL0 Copyright (c) Steve Scherf et al.
# Submitted via: audiograbber 1.83.01
#
DISCID=9409150b
DTITLE=Puhuva Kone - T‰‰ Hetki
DYEAR=2011
DGENRE=Hip-Hop
TTITLE0=Taas Valmiina
TTITLE1=Hyv‰ Kiert‰‰
TTITLE2=Ei Oo Helppoo
TTITLE3=Mit‰ Ikin‰ Feat. Elastinen
TTITLE4=Eura
TTITLE5=Ei Haukku Haavaa Tee
TTITLE6=Hiljaa
TTITLE7=T‰n‰‰n R‰j‰ht‰‰
TTITLE8=Silm‰t
TTITLE9=Mahtavaa
TTITLE10=Tykytyksii Feat. Mikael Gabriel
EXTD=TR.
EXTT0=
EXTT1=
EXTT2=
EXTT3=
EXTT4=
EXTT5=
EXTT6=
EXTT7=
EXTT8=
EXTT9=
EXTT10=
PLAYORDER=
